<svg xmlns="http://www.w3.org/2000/svg" viewBox="0 0 500 500"><g id="freepik--background-simple--inject-1"><path d="M296.13,161.37C243.22,192.69,191.25,126.46,143,121.43,84,115.27,45.14,174,70,226.1c21.28,44.72,65.3,37.34,103.12,56,51.64,25.48,78.49,71.86,141.3,78,121.34,12,132.05-161.63,91.25-246-14.07-29.11-27.56-53-63.52-36.51C309.49,92.62,317.93,148.47,296.13,161.37Z" style="fill:#FF0000"></path><path d="M296.13,161.37C243.22,192.69,191.25,126.46,143,121.43,84,115.27,45.14,174,70,226.1c21.28,44.72,65.3,37.34,103.12,56,51.64,25.48,78.49,71.86,141.3,78,121.34,12,132.05-161.63,91.25-246-14.07-29.11-27.56-53-63.52-36.51C309.49,92.62,317.93,148.47,296.13,161.37Z" style="fill:#fff;opacity:0.9"></path></g><g id="freepik--Shadow--inject-1"><ellipse id="freepik--path--inject-1" cx="250" cy="436.24" rx="193.89" ry="11.32" style="fill:#f5f5f5"></ellipse></g><g id="freepik--Data--inject-1"><path d="M318.35,131.72a8.94,8.94,0,0,1,.93-2.21,4.4,4.4,0,0,1,1.23-1.3,2.74,2.74,0,0,1,1.53-.45,1.89,1.89,0,0,1,1,.25,1.38,1.38,0,0,1,.56.73,3.07,3.07,0,0,1,.14,1.15,7.9,7.9,0,0,1-.36,1.83,9.11,9.11,0,0,1-.93,2.21,4.21,4.21,0,0,1-1.22,1.29,2.71,2.71,0,0,1-1.55.46,1.54,1.54,0,0,1-1.52-.81A4.64,4.64,0,0,1,318.35,131.72Zm1,0a4.54,4.54,0,0,0-.3,2.54.92.92,0,0,0,.91.64,1.85,1.85,0,0,0,1.29-.64,6.27,6.27,0,0,0,1.2-2.54,4.74,4.74,0,0,0,.3-2.54.93.93,0,0,0-.93-.63,1.67,1.67,0,0,0-1.21.55A6.41,6.41,0,0,0,319.33,131.72Z" style="fill:#FF0000"></path><path d="M326.84,135.55h-1l1.79-6.07a6.39,6.39,0,0,1-1.1.65,8.48,8.48,0,0,1-1.14.5l.27-.92a8.82,8.82,0,0,0,1.66-.91,5.48,5.48,0,0,0,1.15-1h.62Z" style="fill:#FF0000"></path><path d="M330.4,131.72a8.56,8.56,0,0,1,.94-2.21,4.25,4.25,0,0,1,1.22-1.3,2.75,2.75,0,0,1,1.54-.45,1.88,1.88,0,0,1,1,.25,1.38,1.38,0,0,1,.56.73,3.07,3.07,0,0,1,.14,1.15,7.9,7.9,0,0,1-.36,1.83,9.11,9.11,0,0,1-.93,2.21,4.21,4.21,0,0,1-1.22,1.29,2.71,2.71,0,0,1-1.55.46,1.54,1.54,0,0,1-1.52-.81A4.64,4.64,0,0,1,330.4,131.72Zm1,0a4.54,4.54,0,0,0-.3,2.54.92.92,0,0,0,.91.64,1.85,1.85,0,0,0,1.29-.64,6.14,6.14,0,0,0,1.2-2.54,4.54,4.54,0,0,0,.3-2.54.93.93,0,0,0-.93-.63,1.69,1.69,0,0,0-1.21.55A6.54,6.54,0,0,0,331.38,131.72Z" style="fill:#FF0000"></path><path d="M336.43,131.72a8.94,8.94,0,0,1,.93-2.21,4.25,4.25,0,0,1,1.22-1.3,2.77,2.77,0,0,1,1.54-.45,1.84,1.84,0,0,1,1,.25,1.35,1.35,0,0,1,.57.73,3.07,3.07,0,0,1,.14,1.15,8,8,0,0,1-.37,1.83,8.38,8.38,0,0,1-.93,2.21,4.1,4.1,0,0,1-1.22,1.29,2.68,2.68,0,0,1-1.54.46,1.55,1.55,0,0,1-1.53-.81A4.65,4.65,0,0,1,336.43,131.72Zm1,0a4.74,4.74,0,0,0-.3,2.54.93.93,0,0,0,.92.64,1.85,1.85,0,0,0,1.29-.64,6.28,6.28,0,0,0,1.19-2.54,4.67,4.67,0,0,0,.31-2.54.94.94,0,0,0-.93-.63,1.67,1.67,0,0,0-1.21.55A6.53,6.53,0,0,0,337.4,131.72Z" style="fill:#FF0000"></path><path d="M342.45,131.72a8.56,8.56,0,0,1,.94-2.21,4.25,4.25,0,0,1,1.22-1.3,2.75,2.75,0,0,1,1.54-.45,1.88,1.88,0,0,1,1,.25,1.38,1.38,0,0,1,.56.73,3.07,3.07,0,0,1,.14,1.15,7.4,7.4,0,0,1-.36,1.83,9.11,9.11,0,0,1-.93,2.21,4.21,4.21,0,0,1-1.22,1.29,2.71,2.71,0,0,1-1.54.46,1.55,1.55,0,0,1-1.53-.81A4.64,4.64,0,0,1,342.45,131.72Zm1,0a4.63,4.63,0,0,0-.3,2.54.92.92,0,0,0,.92.64,1.89,1.89,0,0,0,1.29-.64,6.28,6.28,0,0,0,1.19-2.54,4.54,4.54,0,0,0,.3-2.54.93.93,0,0,0-.93-.63,1.69,1.69,0,0,0-1.21.55A6.67,6.67,0,0,0,343.43,131.72Z" style="fill:#FF0000"></path><path d="M350.94,135.55H350l1.78-6.07a6.67,6.67,0,0,1-1.09.65,9.13,9.13,0,0,1-1.15.5l.27-.92a8.91,8.91,0,0,0,1.67-.91,6,6,0,0,0,1.15-1h.61Z" style="fill:#FF0000"></path><path d="M354.5,131.72a8.56,8.56,0,0,1,.94-2.21,4.25,4.25,0,0,1,1.22-1.3,2.75,2.75,0,0,1,1.54-.45,1.88,1.88,0,0,1,1,.25,1.38,1.38,0,0,1,.56.73,3.06,3.06,0,0,1,.15,1.15,8,8,0,0,1-.37,1.83,9.11,9.11,0,0,1-.93,2.21,4.21,4.21,0,0,1-1.22,1.29,2.71,2.71,0,0,1-1.54.46,1.55,1.55,0,0,1-1.53-.81A4.64,4.64,0,0,1,354.5,131.72Zm1,0a4.74,4.74,0,0,0-.3,2.54.92.92,0,0,0,.92.64,1.89,1.89,0,0,0,1.29-.64,6.28,6.28,0,0,0,1.19-2.54,4.54,4.54,0,0,0,.3-2.54.92.92,0,0,0-.92-.63,1.7,1.7,0,0,0-1.22.55A6.67,6.67,0,0,0,355.48,131.72Z" style="fill:#FF0000"></path><path d="M363,135.55H362l1.78-6.07a6.67,6.67,0,0,1-1.09.65,9.13,9.13,0,0,1-1.15.5l.27-.92a8.91,8.91,0,0,0,1.67-.91,6,6,0,0,0,1.15-1h.61Z" style="fill:#FF0000"></path><path d="M368.21,135.55h-.95l1.78-6.07a6.27,6.27,0,0,1-1.09.65,9.13,9.13,0,0,1-1.15.5l.27-.92a8.91,8.91,0,0,0,1.67-.91,5.75,5.75,0,0,0,1.15-1h.61Z" style="fill:#FF0000"></path><path d="M371.78,131.72a8.94,8.94,0,0,1,.93-2.21,4.25,4.25,0,0,1,1.22-1.3,2.77,2.77,0,0,1,1.54-.45,1.84,1.84,0,0,1,1,.25,1.4,1.4,0,0,1,.57.73,3.29,3.29,0,0,1,.14,1.15,8,8,0,0,1-.37,1.83,8.73,8.73,0,0,1-.93,2.21,4.1,4.1,0,0,1-1.22,1.29,2.68,2.68,0,0,1-1.54.46,1.55,1.55,0,0,1-1.53-.81A4.65,4.65,0,0,1,371.78,131.72Zm1,0a4.74,4.74,0,0,0-.3,2.54.93.93,0,0,0,.92.64,1.85,1.85,0,0,0,1.29-.64,6.28,6.28,0,0,0,1.19-2.54,4.67,4.67,0,0,0,.31-2.54.94.94,0,0,0-.93-.63,1.67,1.67,0,0,0-1.21.55A6.53,6.53,0,0,0,372.75,131.72Z" style="fill:#FF0000"></path><path d="M380.26,135.55h-.95l1.79-6.07a6.8,6.8,0,0,1-1.1.65,9.13,9.13,0,0,1-1.15.5l.27-.92a8.61,8.61,0,0,0,1.67-.91,5.75,5.75,0,0,0,1.15-1h.61Z" style="fill:#FF0000"></path><path d="M383.83,131.72a8.94,8.94,0,0,1,.93-2.21,4.25,4.25,0,0,1,1.22-1.3,2.77,2.77,0,0,1,1.54-.45,1.84,1.84,0,0,1,1,.25,1.35,1.35,0,0,1,.57.73,3.07,3.07,0,0,1,.14,1.15,8,8,0,0,1-.37,1.83,8.38,8.38,0,0,1-.93,2.21,4.1,4.1,0,0,1-1.22,1.29,2.68,2.68,0,0,1-1.54.46,1.55,1.55,0,0,1-1.53-.81A4.65,4.65,0,0,1,383.83,131.72Zm1,0a4.67,4.67,0,0,0-.31,2.54.93.93,0,0,0,.92.64,1.85,1.85,0,0,0,1.29-.64,6.4,6.4,0,0,0,1.2-2.54,4.74,4.74,0,0,0,.3-2.54.94.94,0,0,0-.93-.63,1.67,1.67,0,0,0-1.21.55A6.41,6.41,0,0,0,384.81,131.72Z" style="fill:#FF0000"></path><path d="M317,148.55h-1l1.79-6.07a7.59,7.59,0,0,1-1.1.66,10.59,10.59,0,0,1-1.15.49l.27-.92a8.61,8.61,0,0,0,1.67-.91,5.46,5.46,0,0,0,1.15-1h.61Z" style="fill:#FF0000"></path><path d="M322.2,148.55h-.95l1.79-6.07a7.59,7.59,0,0,1-1.1.66,9.81,9.81,0,0,1-1.15.49l.28-.92a8.82,8.82,0,0,0,1.66-.91,5.46,5.46,0,0,0,1.15-1h.62Z" style="fill:#FF0000"></path><path d="M327.42,148.55h-.95l1.79-6.07a7.08,7.08,0,0,1-1.1.66,10.53,10.53,0,0,1-1.14.49l.27-.92a8.82,8.82,0,0,0,1.66-.91,5.22,5.22,0,0,0,1.15-1h.62Z" style="fill:#FF0000"></path><path d="M331,144.72a9.11,9.11,0,0,1,.93-2.21,4.24,4.24,0,0,1,1.23-1.29,2.67,2.67,0,0,1,1.53-.46,1.89,1.89,0,0,1,1,.25,1.38,1.38,0,0,1,.56.73,3.07,3.07,0,0,1,.14,1.15,7.9,7.9,0,0,1-.36,1.83,9.11,9.11,0,0,1-.93,2.21,4.1,4.1,0,0,1-1.22,1.29,2.71,2.71,0,0,1-1.55.46,1.55,1.55,0,0,1-1.52-.8A4.67,4.67,0,0,1,331,144.72Zm1,0a4.54,4.54,0,0,0-.3,2.54.92.92,0,0,0,.91.64,1.81,1.81,0,0,0,1.29-.64,6.27,6.27,0,0,0,1.2-2.54,4.74,4.74,0,0,0,.3-2.54.93.93,0,0,0-.93-.63,1.67,1.67,0,0,0-1.21.55A6.41,6.41,0,0,0,332,144.72Z" style="fill:#FF0000"></path><path d="M339.48,148.55h-1l1.79-6.07a7.08,7.08,0,0,1-1.1.66,9.75,9.75,0,0,1-1.14.49l.27-.92a8.82,8.82,0,0,0,1.66-.91,5.22,5.22,0,0,0,1.15-1h.62Z" style="fill:#FF0000"></path><path d="M343,144.72a8.72,8.72,0,0,1,.94-2.21,4.1,4.1,0,0,1,1.22-1.29,2.68,2.68,0,0,1,1.54-.46,1.88,1.88,0,0,1,1,.25,1.38,1.38,0,0,1,.56.73,3.07,3.07,0,0,1,.14,1.15,7.9,7.9,0,0,1-.36,1.83,9.11,9.11,0,0,1-.93,2.21,4.1,4.1,0,0,1-1.22,1.29,2.71,2.71,0,0,1-1.55.46,1.55,1.55,0,0,1-1.52-.8A4.67,4.67,0,0,1,343,144.72Zm1,0a4.54,4.54,0,0,0-.3,2.54.92.92,0,0,0,.91.64,1.81,1.81,0,0,0,1.29-.64,6.14,6.14,0,0,0,1.2-2.54,4.54,4.54,0,0,0,.3-2.54.93.93,0,0,0-.93-.63,1.69,1.69,0,0,0-1.21.55A6.54,6.54,0,0,0,344,144.72Z" style="fill:#FF0000"></path><path d="M349.07,144.72a9.11,9.11,0,0,1,.93-2.21,4.1,4.1,0,0,1,1.22-1.29,2.71,2.71,0,0,1,1.54-.46,1.84,1.84,0,0,1,1,.25,1.35,1.35,0,0,1,.57.73,3.07,3.07,0,0,1,.14,1.15,8,8,0,0,1-.37,1.83,8.38,8.38,0,0,1-.93,2.21,4,4,0,0,1-1.22,1.29,2.68,2.68,0,0,1-1.54.46,1.56,1.56,0,0,1-1.53-.8A4.68,4.68,0,0,1,349.07,144.72Zm1,0a4.74,4.74,0,0,0-.3,2.54.93.93,0,0,0,.92.64,1.81,1.81,0,0,0,1.29-.64,6.28,6.28,0,0,0,1.19-2.54,4.67,4.67,0,0,0,.31-2.54.94.94,0,0,0-.93-.63,1.67,1.67,0,0,0-1.21.55A6.53,6.53,0,0,0,350,144.72Z" style="fill:#FF0000"></path><path d="M357.55,148.55h-.95l1.79-6.07a7.59,7.59,0,0,1-1.1.66,10.59,10.59,0,0,1-1.15.49l.28-.92a8.82,8.82,0,0,0,1.66-.91,5.46,5.46,0,0,0,1.15-1h.62Z" style="fill:#FF0000"></path><path d="M362.23,152.44h-1l1.78-6.07A7.44,7.44,0,0,1,362,147a8.91,8.91,0,0,1-1.15.49l.27-.92a8.37,8.37,0,0,0,1.67-.91,5.73,5.73,0,0,0,1.15-1h.61Z" style="fill:#FF0000"></path><path d="M367.45,152.44h-.95l1.78-6.07a6.94,6.94,0,0,1-1.09.66,8.91,8.91,0,0,1-1.15.49l.27-.92a8.37,8.37,0,0,0,1.67-.91,5.73,5.73,0,0,0,1.15-1h.61Z" style="fill:#FF0000"></path><path d="M371.56,144.72a9.11,9.11,0,0,1,.93-2.21,4.24,4.24,0,0,1,1.23-1.29,2.68,2.68,0,0,1,1.54-.46,1.88,1.88,0,0,1,1,.25,1.38,1.38,0,0,1,.56.73,3.07,3.07,0,0,1,.14,1.15,7.9,7.9,0,0,1-.36,1.83,9.11,9.11,0,0,1-.93,2.21,4.1,4.1,0,0,1-1.22,1.29,2.71,2.71,0,0,1-1.55.46,1.55,1.55,0,0,1-1.52-.8A4.67,4.67,0,0,1,371.56,144.72Zm1,0a4.54,4.54,0,0,0-.3,2.54.92.92,0,0,0,.91.64,1.81,1.81,0,0,0,1.29-.64,6.27,6.27,0,0,0,1.2-2.54,4.63,4.63,0,0,0,.3-2.54.93.93,0,0,0-.93-.63,1.69,1.69,0,0,0-1.21.55A6.41,6.41,0,0,0,372.54,144.72Z" style="fill:#FF0000"></path><path d="M380.05,148.55h-1l1.79-6.07a7.44,7.44,0,0,1-1.09.66,10.59,10.59,0,0,1-1.15.49l.27-.92a8.52,8.52,0,0,0,1.66-.91,5.55,5.55,0,0,0,1.16-1h.61Z" style="fill:#FF0000"></path><g style="opacity:0.6000000000000001"><path d="M289.61,163a7.48,7.48,0,0,1,.79-1.88,3.58,3.58,0,0,1,1.05-1.1,2.29,2.29,0,0,1,1.3-.39,1.6,1.6,0,0,1,.87.21,1.15,1.15,0,0,1,.48.62,2.47,2.47,0,0,1,.12,1,6.12,6.12,0,0,1-.31,1.56,7.27,7.27,0,0,1-.79,1.88,3.56,3.56,0,0,1-1,1.1,2.32,2.32,0,0,1-1.31.39,1.32,1.32,0,0,1-1.3-.68A4,4,0,0,1,289.61,163Zm.83,0a3.93,3.93,0,0,0-.25,2.17.78.78,0,0,0,.78.53,1.56,1.56,0,0,0,1.09-.54,5.39,5.39,0,0,0,1-2.16,3.94,3.94,0,0,0,.26-2.16.79.79,0,0,0-.79-.54,1.45,1.45,0,0,0-1,.47A5.53,5.53,0,0,0,290.44,163Z" style="fill:#FF0000"></path><path d="M296.83,166.3H296l1.52-5.17a5.56,5.56,0,0,1-.93.56,6.67,6.67,0,0,1-1,.42l.23-.78a7.18,7.18,0,0,0,1.42-.78,4.34,4.34,0,0,0,1-.88h.52Z" style="fill:#FF0000"></path><path d="M299.87,163a7.48,7.48,0,0,1,.79-1.88,3.56,3.56,0,0,1,1-1.1,2.32,2.32,0,0,1,1.31-.39,1.6,1.6,0,0,1,.87.21,1.15,1.15,0,0,1,.48.62,2.47,2.47,0,0,1,.12,1,6.6,6.6,0,0,1-.31,1.56,7.64,7.64,0,0,1-.79,1.88,3.68,3.68,0,0,1-1,1.1,2.32,2.32,0,0,1-1.31.39,1.32,1.32,0,0,1-1.3-.68A4,4,0,0,1,299.87,163Zm.83,0a4,4,0,0,0-.26,2.17.79.79,0,0,0,.78.53,1.56,1.56,0,0,0,1.1-.54,5.39,5.39,0,0,0,1-2.16,4,4,0,0,0,.26-2.16.8.8,0,0,0-.79-.54,1.47,1.47,0,0,0-1,.47A5.67,5.67,0,0,0,300.7,163Z" style="fill:#FF0000"></path><path d="M305,163a7.46,7.46,0,0,1,.8-1.88,3.56,3.56,0,0,1,1-1.1,2.32,2.32,0,0,1,1.31-.39,1.65,1.65,0,0,1,.87.21,1.25,1.25,0,0,1,.48.62,2.89,2.89,0,0,1,.12,1,6.6,6.6,0,0,1-.31,1.56,7.64,7.64,0,0,1-.79,1.88,3.68,3.68,0,0,1-1,1.1,2.32,2.32,0,0,1-1.31.39,1.32,1.32,0,0,1-1.3-.68A4,4,0,0,1,305,163Zm.84,0a4,4,0,0,0-.26,2.17.79.79,0,0,0,.78.53,1.58,1.58,0,0,0,1.1-.54,5.39,5.39,0,0,0,1-2.16,3.9,3.9,0,0,0,.25-2.16.79.79,0,0,0-.79-.54,1.46,1.46,0,0,0-1,.47A5.67,5.67,0,0,0,305.83,163Z" style="fill:#FF0000"></path><path d="M312.22,166.3h-.81l1.52-5.17a5.56,5.56,0,0,1-.93.56,7.16,7.16,0,0,1-1,.42l.23-.78a7.18,7.18,0,0,0,1.42-.78,4.57,4.57,0,0,0,1-.88h.52Z" style="fill:#FF0000"></path><path d="M315.25,163a7.46,7.46,0,0,1,.8-1.88,3.56,3.56,0,0,1,1-1.1,2.32,2.32,0,0,1,1.31-.39,1.65,1.65,0,0,1,.87.21,1.25,1.25,0,0,1,.48.62,2.89,2.89,0,0,1,.12,1,7.15,7.15,0,0,1-.31,1.56,8,8,0,0,1-.79,1.88,3.68,3.68,0,0,1-1,1.1,2.35,2.35,0,0,1-1.32.39,1.33,1.33,0,0,1-1.3-.68A4,4,0,0,1,315.25,163Zm.83,0a4,4,0,0,0-.25,2.17.79.79,0,0,0,.78.53,1.58,1.58,0,0,0,1.1-.54,5.27,5.27,0,0,0,1-2.16,3.94,3.94,0,0,0,.26-2.16.79.79,0,0,0-.79-.54,1.45,1.45,0,0,0-1,.47A5.53,5.53,0,0,0,316.08,163Z" style="fill:#FF0000"></path><path d="M322.47,166.3h-.81l1.52-5.17a5.18,5.18,0,0,1-.93.56,6.61,6.61,0,0,1-1,.42l.23-.78a7.1,7.1,0,0,0,1.41-.78,4.34,4.34,0,0,0,1-.88h.53Z" style="fill:#FF0000"></path><path d="M325.51,163a7.48,7.48,0,0,1,.79-1.88,3.68,3.68,0,0,1,1-1.1,2.34,2.34,0,0,1,1.31-.39,1.6,1.6,0,0,1,.87.21,1.15,1.15,0,0,1,.48.62,2.47,2.47,0,0,1,.12,1,6.12,6.12,0,0,1-.31,1.56,7.27,7.27,0,0,1-.79,1.88,3.56,3.56,0,0,1-1,1.1,2.32,2.32,0,0,1-1.31.39,1.32,1.32,0,0,1-1.3-.68A4,4,0,0,1,325.51,163Zm.83,0a3.93,3.93,0,0,0-.25,2.17.78.78,0,0,0,.78.53,1.56,1.56,0,0,0,1.09-.54,5.39,5.39,0,0,0,1-2.16,3.94,3.94,0,0,0,.26-2.16.79.79,0,0,0-.79-.54,1.45,1.45,0,0,0-1,.47A5.53,5.53,0,0,0,326.34,163Z" style="fill:#FF0000"></path><path d="M330.64,163a7.48,7.48,0,0,1,.79-1.88,3.56,3.56,0,0,1,1-1.1,2.34,2.34,0,0,1,1.31-.39,1.6,1.6,0,0,1,.87.21,1.15,1.15,0,0,1,.48.62,2.47,2.47,0,0,1,.12,1,6.6,6.6,0,0,1-.31,1.56,7.64,7.64,0,0,1-.79,1.88,3.56,3.56,0,0,1-1,1.1,2.32,2.32,0,0,1-1.31.39,1.32,1.32,0,0,1-1.3-.68A4,4,0,0,1,330.64,163Zm.83,0a4.08,4.08,0,0,0-.26,2.17.79.79,0,0,0,.78.53,1.56,1.56,0,0,0,1.1-.54,5.39,5.39,0,0,0,1-2.16,4,4,0,0,0,.26-2.16.8.8,0,0,0-.79-.54,1.43,1.43,0,0,0-1,.47A5.53,5.53,0,0,0,331.47,163Z" style="fill:#FF0000"></path><path d="M337.86,166.3h-.81l1.52-5.17a5.56,5.56,0,0,1-.93.56,6.67,6.67,0,0,1-1,.42l.23-.78a7.18,7.18,0,0,0,1.42-.78,4.57,4.57,0,0,0,1-.88h.52Z" style="fill:#FF0000"></path><path d="M341.54,160.34a7.46,7.46,0,0,1,.8-1.88,3.56,3.56,0,0,1,1-1.1,2.32,2.32,0,0,1,1.31-.39,1.65,1.65,0,0,1,.87.21,1.25,1.25,0,0,1,.48.62,2.89,2.89,0,0,1,.12,1,6.6,6.6,0,0,1-.31,1.56,7.64,7.64,0,0,1-.79,1.88,3.68,3.68,0,0,1-1,1.1,2.32,2.32,0,0,1-1.31.39,1.32,1.32,0,0,1-1.3-.68A4,4,0,0,1,341.54,160.34Zm.84,0a4,4,0,0,0-.26,2.17.78.78,0,0,0,.78.53,1.58,1.58,0,0,0,1.1-.54,5.39,5.39,0,0,0,1-2.16,3.9,3.9,0,0,0,.25-2.16.79.79,0,0,0-.79-.54,1.46,1.46,0,0,0-1,.47A5.67,5.67,0,0,0,342.38,160.34Z" style="fill:#FF0000"></path><path d="M346,163a7.46,7.46,0,0,1,.8-1.88,3.56,3.56,0,0,1,1-1.1,2.32,2.32,0,0,1,1.31-.39,1.65,1.65,0,0,1,.87.21,1.25,1.25,0,0,1,.48.62,2.89,2.89,0,0,1,.12,1,7.15,7.15,0,0,1-.31,1.56,7.64,7.64,0,0,1-.79,1.88,3.68,3.68,0,0,1-1,1.1,2.33,2.33,0,0,1-1.32.39,1.31,1.31,0,0,1-1.29-.68A4,4,0,0,1,346,163Zm.84,0a4,4,0,0,0-.26,2.17.79.79,0,0,0,.78.53,1.58,1.58,0,0,0,1.1-.54,5.27,5.27,0,0,0,1-2.16,3.94,3.94,0,0,0,.26-2.16.79.79,0,0,0-.79-.54,1.46,1.46,0,0,0-1,.47A5.54,5.54,0,0,0,346.86,163Z" style="fill:#FF0000"></path><path d="M288.44,177.36h-.81l1.53-5.16a6.48,6.48,0,0,1-.94.56,9.83,9.83,0,0,1-1,.42l.23-.79a7.07,7.07,0,0,0,1.41-.77,4.59,4.59,0,0,0,1-.88h.53Z" style="fill:#FF0000"></path><path d="M291.48,174.11a7.34,7.34,0,0,1,.8-1.89,3.56,3.56,0,0,1,1-1.1,2.28,2.28,0,0,1,1.3-.38,1.6,1.6,0,0,1,.87.21,1.11,1.11,0,0,1,.48.62,2.44,2.44,0,0,1,.12,1,6.29,6.29,0,0,1-.31,1.56A7.19,7.19,0,0,1,295,176a3.49,3.49,0,0,1-1,1.11,2.32,2.32,0,0,1-1.31.39,1.31,1.31,0,0,1-1.3-.69A3.94,3.94,0,0,1,291.48,174.11Zm.83,0a3.9,3.9,0,0,0-.25,2.16.77.77,0,0,0,.78.54,1.56,1.56,0,0,0,1.09-.54,5.39,5.39,0,0,0,1-2.16,4,4,0,0,0,.26-2.17.8.8,0,0,0-.79-.53,1.41,1.41,0,0,0-1,.47A5.39,5.39,0,0,0,292.31,174.11Z" style="fill:#FF0000"></path><path d="M296.61,174.11a7.73,7.73,0,0,1,.79-1.89,3.68,3.68,0,0,1,1-1.1,2.33,2.33,0,0,1,1.31-.38,1.6,1.6,0,0,1,.87.21,1.11,1.11,0,0,1,.48.62,2.44,2.44,0,0,1,.12,1,6.79,6.79,0,0,1-.31,1.56,7.55,7.55,0,0,1-.79,1.87,3.49,3.49,0,0,1-1,1.11,2.32,2.32,0,0,1-1.31.39,1.31,1.31,0,0,1-1.3-.69A3.94,3.94,0,0,1,296.61,174.11Zm.83,0a4,4,0,0,0-.26,2.16.79.79,0,0,0,.78.54,1.56,1.56,0,0,0,1.1-.54,5.39,5.39,0,0,0,1-2.16,4,4,0,0,0,.26-2.17.81.81,0,0,0-.79-.53,1.39,1.39,0,0,0-1,.47A5.39,5.39,0,0,0,297.44,174.11Z" style="fill:#FF0000"></path><path d="M303.83,177.36H303l1.52-5.16a6.33,6.33,0,0,1-.93.56,9.89,9.89,0,0,1-1,.42l.23-.79a7.15,7.15,0,0,0,1.42-.77,4.85,4.85,0,0,0,1-.88h.52Z" style="fill:#FF0000"></path><path d="M306.86,174.11a7.71,7.71,0,0,1,.8-1.89,3.68,3.68,0,0,1,1-1.1,2.31,2.31,0,0,1,1.31-.38,1.65,1.65,0,0,1,.87.21,1.21,1.21,0,0,1,.48.62,2.86,2.86,0,0,1,.12,1,6.79,6.79,0,0,1-.31,1.56,7.55,7.55,0,0,1-.79,1.87,3.6,3.6,0,0,1-1,1.11,2.32,2.32,0,0,1-1.31.39,1.31,1.31,0,0,1-1.3-.69A3.92,3.92,0,0,1,306.86,174.11Zm.84,0a3.93,3.93,0,0,0-.26,2.16.79.79,0,0,0,.78.54,1.58,1.58,0,0,0,1.1-.54,5.39,5.39,0,0,0,1-2.16,3.93,3.93,0,0,0,.25-2.17.79.79,0,0,0-.79-.53,1.42,1.42,0,0,0-1,.47A5.53,5.53,0,0,0,307.7,174.11Z" style="fill:#FF0000"></path><path d="M314.09,177.36h-.81l1.52-5.16a6.33,6.33,0,0,1-.93.56c-.38.18-.7.32-1,.42l.23-.79a7.15,7.15,0,0,0,1.42-.77,4.85,4.85,0,0,0,1-.88H316Z" style="fill:#FF0000"></path><path d="M317.12,174.11a7.71,7.71,0,0,1,.8-1.89,3.68,3.68,0,0,1,1-1.1,2.31,2.31,0,0,1,1.31-.38,1.65,1.65,0,0,1,.87.21,1.21,1.21,0,0,1,.48.62,2.86,2.86,0,0,1,.12,1,7.38,7.38,0,0,1-.31,1.56,8,8,0,0,1-.79,1.87,3.6,3.6,0,0,1-1,1.11,2.35,2.35,0,0,1-1.32.39,1.32,1.32,0,0,1-1.3-.69A4,4,0,0,1,317.12,174.11Zm.83,0a4,4,0,0,0-.25,2.16.79.79,0,0,0,.78.54,1.58,1.58,0,0,0,1.1-.54,5.27,5.27,0,0,0,1-2.16,4,4,0,0,0,.26-2.17.8.8,0,0,0-.79-.53,1.41,1.41,0,0,0-1,.47A5.39,5.39,0,0,0,318,174.11Z" style="fill:#FF0000"></path><path d="M324.34,177.36h-.81l1.52-5.16a5.84,5.84,0,0,1-.93.56,9.83,9.83,0,0,1-1,.42l.23-.79a7.07,7.07,0,0,0,1.41-.77,4.59,4.59,0,0,0,1-.88h.53Z" style="fill:#FF0000"></path><path d="M328.79,177.36H328l1.52-5.16a6.33,6.33,0,0,1-.93.56,9.89,9.89,0,0,1-1,.42l.23-.79a7.15,7.15,0,0,0,1.42-.77,4.85,4.85,0,0,0,1-.88h.52Z" style="fill:#FF0000"></path><path d="M333.23,177.36h-.81l1.52-5.16a6.33,6.33,0,0,1-.93.56,9.89,9.89,0,0,1-1,.42l.24-.79a7.35,7.35,0,0,0,1.41-.77,4.59,4.59,0,0,0,1-.88h.52Z" style="fill:#FF0000"></path><path d="M336.27,174.11a7.73,7.73,0,0,1,.79-1.89,3.68,3.68,0,0,1,1-1.1,2.33,2.33,0,0,1,1.31-.38,1.6,1.6,0,0,1,.87.21,1.11,1.11,0,0,1,.48.62,2.44,2.44,0,0,1,.12,1,6.79,6.79,0,0,1-.31,1.56,7.55,7.55,0,0,1-.79,1.87,3.49,3.49,0,0,1-1,1.11,2.32,2.32,0,0,1-1.31.39,1.31,1.31,0,0,1-1.3-.69A3.94,3.94,0,0,1,336.27,174.11Zm.83,0a4,4,0,0,0-.26,2.16.79.79,0,0,0,.78.54,1.56,1.56,0,0,0,1.1-.54,5.39,5.39,0,0,0,1-2.16,4.08,4.08,0,0,0,.26-2.17.81.81,0,0,0-.79-.53,1.39,1.39,0,0,0-1,.47A5.39,5.39,0,0,0,337.1,174.11Z" style="fill:#FF0000"></path><path d="M341.4,174.11a7.73,7.73,0,0,1,.79-1.89,3.68,3.68,0,0,1,1-1.1,2.31,2.31,0,0,1,1.31-.38,1.6,1.6,0,0,1,.87.21,1.11,1.11,0,0,1,.48.62,2.44,2.44,0,0,1,.12,1,6.79,6.79,0,0,1-.31,1.56,7.55,7.55,0,0,1-.79,1.87,3.6,3.6,0,0,1-1,1.11,2.32,2.32,0,0,1-1.31.39,1.31,1.31,0,0,1-1.3-.69A3.88,3.88,0,0,1,341.4,174.11Zm.83,0a3.93,3.93,0,0,0-.26,2.16.79.79,0,0,0,.78.54,1.58,1.58,0,0,0,1.1-.54,5.39,5.39,0,0,0,1-2.16,3.93,3.93,0,0,0,.25-2.17.79.79,0,0,0-.79-.53,1.42,1.42,0,0,0-1,.47A5.53,5.53,0,0,0,342.23,174.11Z" style="fill:#FF0000"></path></g><g style="opacity:0.2"><path d="M299.62,189.83a6.83,6.83,0,0,1,.74-1.74,3.38,3.38,0,0,1,1-1,2.15,2.15,0,0,1,1.21-.36,1.46,1.46,0,0,1,.8.2,1.07,1.07,0,0,1,.45.57,2.5,2.5,0,0,1,.11.91,6.12,6.12,0,0,1-.29,1.44,6.91,6.91,0,0,1-.73,1.73,3.38,3.38,0,0,1-1,1,2.16,2.16,0,0,1-1.22.36,1.23,1.23,0,0,1-1.2-.63A3.66,3.66,0,0,1,299.62,189.83Zm.77,0a3.8,3.8,0,0,0-.24,2,.74.74,0,0,0,.73.5,1.46,1.46,0,0,0,1-.5,5,5,0,0,0,.94-2,3.6,3.6,0,0,0,.24-2,.73.73,0,0,0-.73-.5,1.32,1.32,0,0,0-.95.44A5.08,5.08,0,0,0,300.39,189.83Z" style="fill:#FF0000"></path><path d="M304.36,189.83a7.2,7.2,0,0,1,.74-1.74,3.38,3.38,0,0,1,1-1,2.17,2.17,0,0,1,1.21-.36,1.52,1.52,0,0,1,.81.2,1.06,1.06,0,0,1,.44.57,2.3,2.3,0,0,1,.11.91,6.56,6.56,0,0,1-.28,1.44,6.9,6.9,0,0,1-.74,1.73,3.15,3.15,0,0,1-1,1,2.13,2.13,0,0,1-1.21.36,1.21,1.21,0,0,1-1.2-.63A3.64,3.64,0,0,1,304.36,189.83Zm.78,0a3.59,3.59,0,0,0-.24,2,.73.73,0,0,0,.72.5,1.49,1.49,0,0,0,1-.5,5.14,5.14,0,0,0,.94-2,3.66,3.66,0,0,0,.23-2,.72.72,0,0,0-.73-.5,1.34,1.34,0,0,0-.95.44A5,5,0,0,0,305.14,189.83Z" style="fill:#FF0000"></path><path d="M309.11,189.83a7.22,7.22,0,0,1,.73-1.74,3.28,3.28,0,0,1,1-1,2.13,2.13,0,0,1,1.21-.36,1.48,1.48,0,0,1,.8.2,1.07,1.07,0,0,1,.45.57,2.73,2.73,0,0,1,.11.91,6.69,6.69,0,0,1-.29,1.44,7.31,7.31,0,0,1-.73,1.73,3.38,3.38,0,0,1-1,1,2.18,2.18,0,0,1-1.22.36,1.21,1.21,0,0,1-1.2-.63A3.66,3.66,0,0,1,309.11,189.83Zm.77,0a3.59,3.59,0,0,0-.24,2,.74.74,0,0,0,.72.5,1.46,1.46,0,0,0,1-.5,5.14,5.14,0,0,0,.94-2,3.8,3.8,0,0,0,.24-2,.73.73,0,0,0-.73-.5,1.34,1.34,0,0,0-1,.44A5.09,5.09,0,0,0,309.88,189.83Z" style="fill:#FF0000"></path><path d="M315.79,192.84H315l1.41-4.78a6,6,0,0,1-.87.52,7.67,7.67,0,0,1-.9.39l.21-.73a6.56,6.56,0,0,0,1.31-.71,4.43,4.43,0,0,0,.91-.82h.48Z" style="fill:#FF0000"></path><path d="M318.6,189.83a6.84,6.84,0,0,1,.73-1.74,3.38,3.38,0,0,1,1-1,2.17,2.17,0,0,1,1.21-.36,1.52,1.52,0,0,1,.81.2,1.06,1.06,0,0,1,.44.57,2.3,2.3,0,0,1,.11.91,6.56,6.56,0,0,1-.28,1.44,7.31,7.31,0,0,1-.73,1.73,3.28,3.28,0,0,1-1,1,2.13,2.13,0,0,1-1.21.36,1.21,1.21,0,0,1-1.2-.63A3.66,3.66,0,0,1,318.6,189.83Zm.77,0a3.59,3.59,0,0,0-.24,2,.74.74,0,0,0,.72.5,1.49,1.49,0,0,0,1-.5,5.14,5.14,0,0,0,.94-2,3.66,3.66,0,0,0,.23-2,.72.72,0,0,0-.73-.5,1.34,1.34,0,0,0-.95.44A5,5,0,0,0,319.37,189.83Z" style="fill:#FF0000"></path><path d="M325.28,192.84h-.75l1.4-4.78a5.9,5.9,0,0,1-.86.52,7.67,7.67,0,0,1-.9.39l.21-.73a6.84,6.84,0,0,0,1.31-.71,4.43,4.43,0,0,0,.91-.82h.48Z" style="fill:#FF0000"></path><path d="M328.08,189.83a6.83,6.83,0,0,1,.74-1.74,3.38,3.38,0,0,1,1-1,2.15,2.15,0,0,1,1.21-.36,1.52,1.52,0,0,1,.81.2,1.11,1.11,0,0,1,.44.57,2.5,2.5,0,0,1,.11.91,6.12,6.12,0,0,1-.29,1.44,6.91,6.91,0,0,1-.73,1.73,3.15,3.15,0,0,1-1,1,2.15,2.15,0,0,1-1.21.36,1.21,1.21,0,0,1-1.2-.63A3.58,3.58,0,0,1,328.08,189.83Zm.77,0a3.66,3.66,0,0,0-.23,2,.72.72,0,0,0,.72.5,1.46,1.46,0,0,0,1-.5,4.87,4.87,0,0,0,.94-2,3.6,3.6,0,0,0,.24-2,.73.73,0,0,0-.73-.5,1.34,1.34,0,0,0-.95.44A5.08,5.08,0,0,0,328.85,189.83Z" style="fill:#FF0000"></path><path d="M334.76,192.84H334l1.41-4.78a5.9,5.9,0,0,1-.86.52,8.52,8.52,0,0,1-.91.39l.22-.73a7.16,7.16,0,0,0,1.31-.71,4.35,4.35,0,0,0,.9-.82h.49Z" style="fill:#FF0000"></path><path d="M337.57,189.83a6.83,6.83,0,0,1,.74-1.74,3.15,3.15,0,0,1,1-1,2.13,2.13,0,0,1,1.21-.36,1.48,1.48,0,0,1,.8.2,1.07,1.07,0,0,1,.45.57,2.73,2.73,0,0,1,.11.91,6.69,6.69,0,0,1-.29,1.44,6.91,6.91,0,0,1-.73,1.73,3.38,3.38,0,0,1-1,1,2.18,2.18,0,0,1-1.22.36,1.21,1.21,0,0,1-1.2-.63A3.66,3.66,0,0,1,337.57,189.83Zm.77,0a3.69,3.69,0,0,0-.24,2,.74.74,0,0,0,.72.5,1.46,1.46,0,0,0,1-.5,5,5,0,0,0,.94-2,3.6,3.6,0,0,0,.24-2,.73.73,0,0,0-.73-.5,1.36,1.36,0,0,0-1,.44A5.09,5.09,0,0,0,338.34,189.83Z" style="fill:#FF0000"></path><path d="M344.25,192.84h-.75l1.41-4.78a5.54,5.54,0,0,1-.87.52,7.67,7.67,0,0,1-.9.39l.21-.73a6.56,6.56,0,0,0,1.31-.71,4.43,4.43,0,0,0,.91-.82h.48Z" style="fill:#FF0000"></path><path d="M347.06,189.83a6.84,6.84,0,0,1,.73-1.74,3.38,3.38,0,0,1,1-1,2.18,2.18,0,0,1,1.22-.36,1.51,1.51,0,0,1,.8.2,1,1,0,0,1,.44.57,2.3,2.3,0,0,1,.11.91,6,6,0,0,1-.28,1.44,7.31,7.31,0,0,1-.73,1.73,3.38,3.38,0,0,1-1,1,2.18,2.18,0,0,1-1.22.36,1.21,1.21,0,0,1-1.2-.63A3.66,3.66,0,0,1,347.06,189.83Zm.77,0a3.59,3.59,0,0,0-.24,2,.74.74,0,0,0,.72.5,1.48,1.48,0,0,0,1-.5,5.14,5.14,0,0,0,.94-2,3.8,3.8,0,0,0,.24-2,.74.74,0,0,0-.74-.5,1.34,1.34,0,0,0-.95.44A5,5,0,0,0,347.83,189.83Z" style="fill:#FF0000"></path><path d="M351.8,189.83a6.83,6.83,0,0,1,.74-1.74,3.15,3.15,0,0,1,1-1,2.13,2.13,0,0,1,1.21-.36,1.48,1.48,0,0,1,.8.2,1.07,1.07,0,0,1,.45.57,2.73,2.73,0,0,1,.11.91,6.12,6.12,0,0,1-.29,1.44,6.91,6.91,0,0,1-.73,1.73,3.38,3.38,0,0,1-1,1,2.16,2.16,0,0,1-1.22.36,1.21,1.21,0,0,1-1.2-.63A3.66,3.66,0,0,1,351.8,189.83Zm.77,0a3.69,3.69,0,0,0-.24,2,.74.74,0,0,0,.72.5,1.46,1.46,0,0,0,1-.5,5,5,0,0,0,.94-2,3.6,3.6,0,0,0,.24-2,.73.73,0,0,0-.73-.5,1.36,1.36,0,0,0-1,.44A5.22,5.22,0,0,0,352.57,189.83Z" style="fill:#FF0000"></path><path d="M298.54,203.07h-.75l1.41-4.77a5.92,5.92,0,0,1-.86.51,5.69,5.69,0,0,1-.9.39l.21-.72a6.87,6.87,0,0,0,1.31-.72,4.17,4.17,0,0,0,.91-.82h.48Z" style="fill:#FF0000"></path><path d="M300.7,202.61a6.83,6.83,0,0,1,.74-1.74,3.26,3.26,0,0,1,1-1,2.15,2.15,0,0,1,1.21-.36,1.38,1.38,0,0,1,.8.2,1.07,1.07,0,0,1,.45.57,2.5,2.5,0,0,1,.11.91,6.12,6.12,0,0,1-.29,1.44,6.91,6.91,0,0,1-.73,1.73,3.38,3.38,0,0,1-1,1,2.16,2.16,0,0,1-1.22.36,1.23,1.23,0,0,1-1.2-.63A3.66,3.66,0,0,1,300.7,202.61Zm.77,0a3.8,3.8,0,0,0-.24,2,.74.74,0,0,0,.73.5,1.46,1.46,0,0,0,1-.5,5,5,0,0,0,.94-2,3.63,3.63,0,0,0,.24-2,.73.73,0,0,0-.73-.49,1.32,1.32,0,0,0-.95.44A5.08,5.08,0,0,0,301.47,202.61Z" style="fill:#FF0000"></path><path d="M308,203.07h-.75l1.41-4.77a5.92,5.92,0,0,1-.86.51,5.75,5.75,0,0,1-.91.39l.22-.72a7.19,7.19,0,0,0,1.31-.72,4.09,4.09,0,0,0,.9-.82h.49Z" style="fill:#FF0000"></path><path d="M310.19,202.61a7.22,7.22,0,0,1,.73-1.74,3.28,3.28,0,0,1,1-1,2.13,2.13,0,0,1,1.21-.36,1.42,1.42,0,0,1,.8.2,1,1,0,0,1,.44.57,2.48,2.48,0,0,1,.12.91,6.69,6.69,0,0,1-.29,1.44,7.31,7.31,0,0,1-.73,1.73,3.38,3.38,0,0,1-1,1,2.18,2.18,0,0,1-1.22.36,1.21,1.21,0,0,1-1.2-.63A3.66,3.66,0,0,1,310.19,202.61Zm.77,0a3.59,3.59,0,0,0-.24,2,.74.74,0,0,0,.72.5,1.46,1.46,0,0,0,1-.5,5.14,5.14,0,0,0,.94-2,3.83,3.83,0,0,0,.24-2,.73.73,0,0,0-.73-.49,1.34,1.34,0,0,0-1,.44A5,5,0,0,0,311,202.61Z" style="fill:#FF0000"></path><path d="M317.52,203.07h-.75l1.41-4.77a6.07,6.07,0,0,1-.87.51,5.32,5.32,0,0,1-.9.39l.21-.72a6.58,6.58,0,0,0,1.31-.72,4.17,4.17,0,0,0,.91-.82h.48Z" style="fill:#FF0000"></path><path d="M320.32,200.06a7.2,7.2,0,0,1,.74-1.74,3.38,3.38,0,0,1,1-1,2.17,2.17,0,0,1,1.21-.36,1.52,1.52,0,0,1,.81.2,1.06,1.06,0,0,1,.44.57,2.3,2.3,0,0,1,.11.91,6.35,6.35,0,0,1-.28,1.44,6.83,6.83,0,0,1-.74,1.74,3.15,3.15,0,0,1-1,1,2.13,2.13,0,0,1-1.21.36,1.21,1.21,0,0,1-1.2-.63A3.67,3.67,0,0,1,320.32,200.06Zm.78,0a3.6,3.6,0,0,0-.24,2,.72.72,0,0,0,.72.5,1.45,1.45,0,0,0,1-.5,5.07,5.07,0,0,0,.94-2,3.66,3.66,0,0,0,.23-2,.73.73,0,0,0-.73-.5,1.34,1.34,0,0,0-1,.44A5,5,0,0,0,321.1,200.06Z" style="fill:#FF0000"></path><path d="M327,203.07h-.75l1.4-4.77a5.92,5.92,0,0,1-.86.51,5.32,5.32,0,0,1-.9.39l.21-.72a6.87,6.87,0,0,0,1.31-.72,4.17,4.17,0,0,0,.91-.82h.48Z" style="fill:#FF0000"></path><path d="M331.12,203.07h-.75l1.4-4.77a5.92,5.92,0,0,1-.86.51,5.32,5.32,0,0,1-.9.39l.21-.72a6.87,6.87,0,0,0,1.31-.72,4.17,4.17,0,0,0,.91-.82h.48Z" style="fill:#FF0000"></path><path d="M333.92,200.06a6.83,6.83,0,0,1,.74-1.74,3.38,3.38,0,0,1,1-1,2.15,2.15,0,0,1,1.21-.36,1.52,1.52,0,0,1,.81.2,1.11,1.11,0,0,1,.44.57,2.5,2.5,0,0,1,.11.91,5.94,5.94,0,0,1-.29,1.44,6.84,6.84,0,0,1-.73,1.74,3.15,3.15,0,0,1-1,1,2.15,2.15,0,0,1-1.21.36,1.21,1.21,0,0,1-1.2-.63A3.61,3.61,0,0,1,333.92,200.06Zm.77,0a3.66,3.66,0,0,0-.23,2,.71.71,0,0,0,.72.5,1.42,1.42,0,0,0,1-.5,4.8,4.8,0,0,0,.94-2,3.59,3.59,0,0,0,.24-2,.74.74,0,0,0-.73-.5,1.34,1.34,0,0,0-.95.44A5.08,5.08,0,0,0,334.69,200.06Z" style="fill:#FF0000"></path><path d="M338.67,200.06a6.84,6.84,0,0,1,.73-1.74,3.38,3.38,0,0,1,1-1,2.17,2.17,0,0,1,1.21-.36,1.52,1.52,0,0,1,.81.2,1,1,0,0,1,.44.57,2.3,2.3,0,0,1,.11.91,5.84,5.84,0,0,1-.28,1.44,7.22,7.22,0,0,1-.73,1.74,3.38,3.38,0,0,1-1,1,2.18,2.18,0,0,1-1.22.36,1.21,1.21,0,0,1-1.2-.63A3.69,3.69,0,0,1,338.67,200.06Zm.77,0a3.6,3.6,0,0,0-.24,2,.72.72,0,0,0,.72.5,1.45,1.45,0,0,0,1-.5,5.07,5.07,0,0,0,.94-2,3.66,3.66,0,0,0,.23-2,.73.73,0,0,0-.73-.5,1.34,1.34,0,0,0-.95.44A5,5,0,0,0,339.44,200.06Z" style="fill:#FF0000"></path><path d="M345.35,203.07h-.75l1.4-4.77a5.92,5.92,0,0,1-.86.51,5.32,5.32,0,0,1-.9.39l.21-.72a6.58,6.58,0,0,0,1.31-.72,4.17,4.17,0,0,0,.91-.82h.48Z" style="fill:#FF0000"></path><path d="M348.15,200.06a7.2,7.2,0,0,1,.74-1.74,3.38,3.38,0,0,1,1-1,2.15,2.15,0,0,1,1.21-.36,1.52,1.52,0,0,1,.81.2,1.11,1.11,0,0,1,.44.57,2.3,2.3,0,0,1,.11.91,5.94,5.94,0,0,1-.29,1.44,6.84,6.84,0,0,1-.73,1.74,3.15,3.15,0,0,1-1,1,2.15,2.15,0,0,1-1.21.36,1.21,1.21,0,0,1-1.2-.63A3.67,3.67,0,0,1,348.15,200.06Zm.77,0a3.66,3.66,0,0,0-.23,2,.71.71,0,0,0,.72.5,1.42,1.42,0,0,0,1-.5,4.8,4.8,0,0,0,.94-2,3.59,3.59,0,0,0,.24-2,.74.74,0,0,0-.73-.5,1.34,1.34,0,0,0-.95.44A5.08,5.08,0,0,0,348.92,200.06Z" style="fill:#FF0000"></path></g><path d="M370.09,174.66l4.35-2.56-.73-1.61,7.13-4.35-1.67-2.45-10.81-1.77c-5.47,8.42-4.91,14.65-3.61,18.08l5.9-3.2Z" style="fill:#FF0000;opacity:0.6000000000000001"></path><path d="M383.78,168.65l-7.61,3.3.38,2.09L372,175.32l.24,2.49-6.23,2.34a7.24,7.24,0,0,0,1.42,3.26c.95.84,9.89,3.88,19.75-7.59Z" style="fill:#FF0000;opacity:0.6000000000000001"></path><circle cx="297.53" cy="134.78" r="8.23" transform="translate(38.99 334.38) rotate(-62.04)" style="fill:#FF0000"></circle><path d="M300.67,126.51a5.43,5.43,0,1,1-6.78-3.6A5.43,5.43,0,0,1,300.67,126.51Z" style="fill:#FF0000"></path><path d="M284.24,135.28a.58.58,0,0,1-.26-.06.62.62,0,0,1-.3-.83l1.4-3a.62.62,0,0,1,.65-.36l6.65,1a.62.62,0,0,1,.53.7.64.64,0,0,1-.71.53l-6.19-.9-1.2,2.61A.63.63,0,0,1,284.24,135.28Z" style="fill:#FF0000"></path><path d="M286.37,141.13h-.14a.62.62,0,0,1-.47-.75l.73-3.26a.62.62,0,0,1,.57-.48l6.7-.45a.62.62,0,0,1,.66.57.63.63,0,0,1-.58.67l-6.24.42-.63,2.81A.61.61,0,0,1,286.37,141.13Z" style="fill:#FF0000"></path><path d="M291.65,147.22a.65.65,0,0,1-.55-.32L289.45,144a.62.62,0,0,1,.09-.73l4.65-4.85a.63.63,0,0,1,.88,0,.62.62,0,0,1,0,.88l-4.33,4.51,1.43,2.51a.62.62,0,0,1-.24.84A.58.58,0,0,1,291.65,147.22Z" style="fill:#FF0000"></path><path d="M300.64,130.65a.63.63,0,0,1-.46-.2.62.62,0,0,1,0-.88l5-4.53a.63.63,0,0,1,.74-.07l2.86,1.73a.62.62,0,1,1-.64,1.06l-2.46-1.48-4.62,4.21A.67.67,0,0,1,300.64,130.65Z" style="fill:#FF0000"></path><path d="M301.75,135a.62.62,0,0,1-.54-.31.63.63,0,0,1,.22-.85l5.81-3.38a.63.63,0,0,1,.74.09l2.43,2.29a.63.63,0,0,1,0,.88.62.62,0,0,1-.88,0l-2.1-2-5.4,3.15A.6.6,0,0,1,301.75,135Z" style="fill:#FF0000"></path><path d="M309,141.89a.63.63,0,0,1-.62-.57l-.22-2.87-6.11-1.31a.62.62,0,0,1,.25-1.22l6.57,1.41a.61.61,0,0,1,.49.56l.26,3.33a.62.62,0,0,1-.57.67Z" style="fill:#FF0000"></path></g><g id="freepik--Character--inject-1"><path d="M249.32,345.3c-1.27-9-9.59-16.3-18.59-16.3h-16.3L201,233a16.87,16.87,0,0,0-16.18-14.19h-70.9c-7.84,0-13.31,6.35-12.21,14.19l12.4,88.46c1.91,13.6,14.47,24.62,28.07,24.62H249.42Z" style="fill:#FF0000"></path><polygon points="192.6 427.91 177.1 427.91 181.13 346.05 188.58 346.05 192.6 427.91" style="fill:#FF0000"></polygon><polygon points="188.71 348.75 180.92 350.31 181.13 346.05 188.58 346.05 188.71 348.75" style="fill:#263238;opacity:0.30000000000000004"></polygon><path d="M207,428.94c0,1.42-9.91,1.54-22.13,1.54s-22.12-.12-22.12-1.54,9.91-3.6,22.12-3.6S207,427.52,207,428.94Z" style="fill:#FF0000"></path><path d="M247.74,208.51c-.75,4.32-1.57,8.59-2.26,12.81s-1.29,8.39-1.75,12.46a116.72,116.72,0,0,0-.74,11.77,53.92,53.92,0,0,0,.76,10l-5.85-8.14a10.73,10.73,0,0,0,3.41,2.92,46.54,46.54,0,0,0,6.18,3.17c2.32,1,4.84,2,7.43,3,1.3.48,2.63,1,4,1.43l2,.73,1,.37a4.75,4.75,0,0,1,.89.38l3.21,2.31a8.74,8.74,0,0,1-2.69,15.48l-2.64.76-2.5.62c-1.68.35-3.36.67-5.06.91a65.48,65.48,0,0,1-10.48.66,53.87,53.87,0,0,1-11.28-1.35,40.16,40.16,0,0,1-12.66-5.16,12.68,12.68,0,0,1-5.18-6.32l-.68-1.83a72.65,72.65,0,0,1-4.08-17.71,110.46,110.46,0,0,1-.54-16.45,143.28,143.28,0,0,1,1.47-15.58,149,149,0,0,1,3-14.94,18,18,0,0,1,35.13,7.52Z" style="fill:#263238"></path><g style="opacity:0.1"><path d="M247.74,208.51c-.75,4.32-1.57,8.59-2.26,12.81s-1.29,8.39-1.75,12.46a116.72,116.72,0,0,0-.74,11.77,53.92,53.92,0,0,0,.76,10l-5.85-8.14a10.73,10.73,0,0,0,3.41,2.92,46.54,46.54,0,0,0,6.18,3.17c2.32,1,4.84,2,7.43,3,1.3.48,2.63,1,4,1.43l2,.73,1,.37a4.75,4.75,0,0,1,.89.38l3.21,2.31a8.74,8.74,0,0,1-2.69,15.48l-2.64.76-2.5.62c-1.68.35-3.36.67-5.06.91a65.48,65.48,0,0,1-10.48.66,53.87,53.87,0,0,1-11.28-1.35,40.16,40.16,0,0,1-12.66-5.16,12.68,12.68,0,0,1-5.18-6.32l-.68-1.83a72.65,72.65,0,0,1-4.08-17.71,110.46,110.46,0,0,1-.54-16.45,143.28,143.28,0,0,1,1.47-15.58,149,149,0,0,1,3-14.94,18,18,0,0,1,35.13,7.52Z" style="fill:#fff"></path></g><path d="M285.45,257.69l-1.58-.33a40,40,0,0,0-17.08.12l-2,.44a8.79,8.79,0,0,0-6.49,5.72,8.5,8.5,0,0,0,5.89,10.94,33,33,0,0,0,9.87.64l8.21.55a5.7,5.7,0,0,0,5.93-4.39l1.59-6.82A5.71,5.71,0,0,0,285.45,257.69Z" style="fill:#ff8b7b"></path><path d="M169.1,164.61c19,1.88,53.18,10.48,69.62,19.83,8.11,4.62,11.32,13.54,9.39,22.68-7,33.41-14.34,45.07-14.29,98.6-8.36,9.5-59.61,18.42-95.89,6.51-5.21-21.66-13.53-74.82-5.09-123.64C135.83,171.34,151.68,162.89,169.1,164.61Z" style="fill:#263238"></path><path d="M186.84,174.12c30.12,16.33,37.61,16.46,45.84,7.78s19.81-39.35,4.45-53.05-48.95-10.33-44.28,0S152.8,155.65,186.84,174.12Z" style="fill:#263238"></path><path d="M199.86,209.75a.25.25,0,0,1-.16-.06.24.24,0,0,1,0-.35c9.73-12.86,8.07-29.5,8.05-29.66a.25.25,0,0,1,.22-.28.27.27,0,0,1,.28.22c0,.17,1.7,17-8.16,30A.24.24,0,0,1,199.86,209.75Z" style="fill:#fff"></path><polygon points="198.14 210.07 199.94 209.33 199.73 211.27 198.14 210.07" style="fill:#fff"></polygon><path d="M227.12,213.61h0a.26.26,0,0,1-.21-.29,99.5,99.5,0,0,0-.25-29.19.24.24,0,0,1,.2-.29.24.24,0,0,1,.29.2,99.45,99.45,0,0,1,.25,29.36A.25.25,0,0,1,227.12,213.61Z" style="fill:#fff"></path><polygon points="225.89 214.7 227.11 213.18 227.87 214.97 225.89 214.7" style="fill:#fff"></polygon><path d="M201,283.17h0a.51.51,0,0,1-.5-.51c.25-19.9,5.1-38.39,9.39-54.7,4.62-17.59,8.61-32.78,5.95-45.45a.5.5,0,0,1,.39-.59.49.49,0,0,1,.59.38c2.71,12.9-1.31,28.2-6,45.91-4.28,16.26-9.12,34.68-9.36,54.46A.5.5,0,0,1,201,283.17Z" style="fill:#fff;opacity:0.2"></path><path d="M206.16,142.35c-3.66,11.06-6.36,17.3-3.12,25.41,4.88,12.2,20.21,13.64,27.1,4.14,6.2-8.54,11.14-25.19,2.27-34.5S209.81,131.3,206.16,142.35Z" style="fill:#ff8b7b"></path><path d="M222.46,151.4a.7.7,0,0,1,0,.32.61.61,0,0,1-.76.43,6.18,6.18,0,0,1-4.23-3.78.64.64,0,0,1,.41-.79.63.63,0,0,1,.78.41h0a4.88,4.88,0,0,0,3.37,3A.61.61,0,0,1,222.46,151.4Z" style="fill:#263238"></path><path d="M206.79,131.33c-.81,7.51,13,16.61,18.25,19.39a11.91,11.91,0,0,1-2.56-6.43s5.35,5.5,10.48,6.71a10.45,10.45,0,0,1-3-6.33,10.41,10.41,0,0,1,5.25,6.44c2.16-2.52,6.2-9.58-.13-17C227,124.74,208,120.58,206.79,131.33Z" style="fill:#263238"></path><path d="M232.05,137.91c-9.31-9.77-24.09-6.51-28,5.28-3,9.1-7.29,19.52-5,29.25.16.69.8,1.08,1.26,1.62a3,3,0,0,0,4.38.17c1.33-1.2,1.94-3,2.6-4.64,3-7.61,6.55-9.81,14.33-12.34,5.7-1.85,15.35-2.35,15.42-3.2a26,26,0,0,0-.13-7.18A19.49,19.49,0,0,0,232.05,137.91Z" style="opacity:0.6"></path><path d="M225.05,157.43s1.77,6.13.21,9.2c-2.22.6-4.4-1.34-4.4-1.34Z" style="fill:#ff5652"></path><path d="M217.19,155.84c-.21,1,.17,2,.85,2.13s1.39-.62,1.6-1.66-.18-2-.85-2.14S217.4,154.79,217.19,155.84Z" style="fill:#263238"></path><path d="M228.92,158.61c-.21,1,.17,2,.85,2.14s1.39-.62,1.59-1.67-.17-2-.85-2.13S229.12,157.57,228.92,158.61Z" style="fill:#263238"></path><path d="M230.47,153.2a.6.6,0,0,1,.58-.1,4.76,4.76,0,0,0,4.42-.51.6.6,0,0,1,.86.12.64.64,0,0,1-.11.88,6.07,6.07,0,0,1-5.59.71.64.64,0,0,1-.37-.81A.62.62,0,0,1,230.47,153.2Z" style="fill:#263238"></path><path d="M135.67,180.09a29.33,29.33,0,0,0-2.83,8.5c-6,34.85-3.51,71.91.32,98.14C170.19,214.55,174,175,135.67,180.09Z" style="opacity:0.2"></path><path d="M289.88,391.07c-2.65-.32-14.67,5.15-14.67,5.15A253.92,253.92,0,0,0,284.92,425l13.65-9.76S291.5,400.14,289.88,391.07Z" style="fill:#ff8b7b"></path><path d="M279,420l3.18,13.66a1.67,1.67,0,0,0,2.39,1.14c5.39-2.59,12-6,17.17-8.57,6.06-3,10.09-4.28,17.2-7.83,4.3-2.14,3.45-6.94,1.45-6.64-9.63,1.43-15.11,1.88-21.38-1.53,0,0,3.64-5.52.38-6.65S289.15,405,289.58,408a11.86,11.86,0,0,0,1.27,4.37S280.39,415.65,279,420Z" style="fill:#263238"></path><path d="M269.91,393.51c-6.87-25.74-18-36.18-19.05-61-18.35-3.37-65.49,7.29-71.81-18.62C176.6,303.85,166,291.6,166.86,286c16,0,64.34.47,83.59,2.69,31.45,3.64,28.37,10.81,31.33,47.79,1.15,14.44,4.07,19,7.37,37.54,1.78,10,4.57,15.45,4.42,22.49-4.65,7.37-14,8.73-18.92,8.35C270,403.07,271.31,398.78,269.91,393.51Z" style="fill:#263238"></path><path d="M239.06,297.4,225.28,332c8.35-.1,16.27-.44,22.25.12C250.83,323.05,250.84,303.82,239.06,297.4Z" style="opacity:0.2"></path><path d="M227.77,400.69c-2.44-1.43-15.68-1.7-15.68-1.7a249,249,0,0,0,.07,30.14l16.18-2.89S226.41,409.57,227.77,400.69Z" style="fill:#ff8b7b"></path><path d="M208.14,391.69c1.34-26.6-10.45-34.72,2.22-56.88-18.65-.35-66.09,5-72.4-20.89-2.46-10.07-4.38-19.48-4.34-24.1,12.25-6.59,59.62-4.82,78.55-.73,31,6.67,39.58,6.62,26.78,50.3-2.36,8.09-2.2,12-6.52,39.61-1.57,10,.83,20.9-1.47,27.56-2.5,6-13.43,4.18-21.86,5.4C202.43,408.4,207.87,397.14,208.14,391.69Z" style="fill:#263238"></path><path d="M208.15,422l-1.34,13.69a1.92,1.92,0,0,0,1.92,2.06c6,0,13.36-.2,19.15-.29,6.76-.11,6.56.51,14.49.38,4.8-.07,5.52-4.76,3.51-5.36-9.66-2.88-10.59-4.84-15.48-10.63,0,0,5.24-3.4,2.49-5.83s-15-2.91-15.56,0a11.43,11.43,0,0,0-.18,4.49S210.83,418.75,208.15,422Z" style="fill:#263238"></path><path d="M169,194.14l-2,6.41c-.65,2.24-1.35,4.47-2,6.71s-1.27,4.47-1.82,6.7-1.09,4.44-1.59,6.63a121,121,0,0,0-2.2,12.64c-.24,2-.32,3.85-.36,5.54a34.5,34.5,0,0,0,.19,4.2L154,235a31,31,0,0,0,4.89,3.81c2,1.3,4.21,2.57,6.56,3.81,4.74,2.44,9.91,4.74,15.24,6.88s10.85,4.21,16.44,6.16c2.79,1,5.6,2,8.42,2.92l8.39,2.87.29.1a9,9,0,0,1-2.8,17.52c-1.73,0-3.27,0-4.88,0l-4.78-.16c-3.17-.18-6.35-.38-9.52-.69-6.33-.62-12.69-1.47-19.07-2.72a146.51,146.51,0,0,1-19.34-5.06,94.75,94.75,0,0,1-10-4,61.16,61.16,0,0,1-10.4-6.2,13.85,13.85,0,0,1-4.85-6.61l-.46-1.34a53.37,53.37,0,0,1-2.42-10.8,76.42,76.42,0,0,1-.57-9.71c0-3.09.17-6.1.41-9s.62-5.79,1.06-8.61a162.58,162.58,0,0,1,3.47-16.4c.73-2.66,1.46-5.32,2.32-7.94.43-1.31.86-2.62,1.32-3.93l.72-2,.38-1,.44-1.13a18,18,0,0,1,33.93,11.76Z" style="fill:#263238"></path><path d="M169,194.14l-2,6.41c-.65,2.24-1.35,4.47-2,6.71s-1.27,4.47-1.82,6.7-1.09,4.44-1.59,6.63a121,121,0,0,0-2.2,12.64c-.24,2-.32,3.85-.36,5.54a34.5,34.5,0,0,0,.19,4.2L154,235a31,31,0,0,0,4.89,3.81c2,1.3,4.21,2.57,6.56,3.81,4.74,2.44,9.91,4.74,15.24,6.88s10.85,4.21,16.44,6.16c2.79,1,5.6,2,8.42,2.92l8.39,2.87.29.1a9,9,0,0,1-2.8,17.52c-1.73,0-3.27,0-4.88,0l-4.78-.16c-3.17-.18-6.35-.38-9.52-.69-6.33-.62-12.69-1.47-19.07-2.72a146.51,146.51,0,0,1-19.34-5.06,94.75,94.75,0,0,1-10-4,61.16,61.16,0,0,1-10.4-6.2,13.85,13.85,0,0,1-4.85-6.61l-.46-1.34a53.37,53.37,0,0,1-2.42-10.8,76.42,76.42,0,0,1-.57-9.71c0-3.09.17-6.1.41-9s.62-5.79,1.06-8.61a162.58,162.58,0,0,1,3.47-16.4c.73-2.66,1.46-5.32,2.32-7.94.43-1.31.86-2.62,1.32-3.93l.72-2,.38-1,.44-1.13a18,18,0,0,1,33.93,11.76Z" style="fill:#fff;opacity:0.1"></path><path d="M237.33,263.59l-6.17-1.9a17.87,17.87,0,0,0-7.59-.64l-7.06.94a8.55,8.55,0,0,0-7,5.86h0a8.51,8.51,0,0,0,5.19,10.65,33.18,33.18,0,0,0,9.77,1.52l8.12,1.29a5.71,5.71,0,0,0,6.3-3.84l2.2-6.65A5.69,5.69,0,0,0,237.33,263.59Z" style="fill:#ff8b7b"></path><path d="M142.73,313.12a.4.4,0,0,1-.15,0,.49.49,0,0,1-.32-.62c.33-1.07,9.15-26.23,90.63-24.38a.5.5,0,0,1,.48.51.51.51,0,0,1-.51.49c-80.48-1.83-89.57,23.42-89.65,23.68A.5.5,0,0,1,142.73,313.12Z" style="fill:#fff;opacity:0.2"></path><path d="M232,126c4.06,1.87,10.34,10.16,10.83,14.64.72,6.56-1.71,9.69-6.92,5.08-7.25-6.42-17.75-6.5-22.66,2.42s-4.86,35.49-13.84,25.57-7.81-33.21-3.66-42.49C200.28,121,215.37,118.42,232,126Z" style="fill:#263238"></path><path d="M220.34,151.79h-.08c-5.46-1.1-6.79-5.23-6.85-5.41a.37.37,0,0,1,.25-.46.36.36,0,0,1,.47.24c.05.16,1.27,3.89,6.28,4.9a.38.38,0,0,1,.29.44A.36.36,0,0,1,220.34,151.79Z" style="fill:#263238"></path></g><g id="freepik--Table--inject-1"><rect x="211.4" y="272.33" width="49.05" height="2.36"></rect><polygon points="260.45 274.69 274.9 225.64 272.55 225.64 258.1 274.69 260.45 274.69"></polygon><polygon points="339.23 225.64 274.9 225.64 260.45 274.69 324.78 274.69 339.23 225.64" style="fill:#263238"></polygon><ellipse cx="301.96" cy="242.99" rx="10.66" ry="7.33" transform="translate(-59.93 104.21) rotate(-17.84)" style="fill:#fff"></ellipse><polygon points="302.98 257.82 292.19 257.82 296.98 247.61 304.2 247.61 302.98 257.82" style="fill:#fff"></polygon><ellipse cx="300.03" cy="249.54" rx="7.76" ry="2.93" transform="translate(-12.06 15.26) rotate(-2.86)" style="fill:#fff"></ellipse><path d="M296.07,241.82c-.65,1-.46,2.05.41,2.41a2.48,2.48,0,0,0,2.75-1.13Z" style="fill:#263238"></path><path d="M304.61,243.15c.07,1,1,1.48,2.08,1.12a2.62,2.62,0,0,0,1.84-2.41Z" style="fill:#263238"></path><rect x="172.71" y="274.69" width="160.76" height="11.3" style="fill:#FF0000"></rect><rect x="172.71" y="274.69" width="59.07" height="11.3" style="fill:#263238;opacity:0.30000000000000004"></rect><polygon points="258.21 438.12 247.97 438.12 250.62 285.99 255.55 285.99 258.21 438.12" style="fill:#FF0000"></polygon><polygon points="255.63 291.01 250.49 293.9 250.62 285.99 255.55 285.99 255.63 291.01" style="fill:#263238;opacity:0.30000000000000004"></polygon><path d="M275.21,439.14c0,1.42-9.91,1.54-22.12,1.54S231,440.56,231,439.14s9.91-3.59,22.13-3.59S275.21,437.72,275.21,439.14Z" style="fill:#FF0000"></path></g></svg>